<?xml version="1.0" encoding="UTF-8"?>
<svg width="323px" height="36px" viewBox="0 0 323 36" version="1.1" xmlns="http://www.w3.org/2000/svg" xmlns:xlink="http://www.w3.org/1999/xlink">
    <!-- Generator: Sketch 49.3 (51167) - http://www.bohemiancoding.com/sketch -->
    <title>Artboard</title>
    <desc>Created with Sketch.</desc>
    <defs></defs>
    <g id="Artboard" stroke="none" stroke-width="1" fill="none" fill-rule="evenodd">
        <rect id="Rectangle-path" fill="#AD1A1A" fill-rule="nonzero" x="10.7195531" y="10.1983287" width="5.09832402" height="1"></rect>
        <polygon id="Shape" fill="#AD1A1A" fill-rule="nonzero" points="25.1698324 12.1537604 22.9072626 10.6896936 20.8458101 12.1537604 20.252514 11.4618384 22.9072626 9.60668524 25.652514 11.4618384"></polygon>
        <g id="Group">
            <path d="M17.9899441,35.9699164 C8.0547486,35.9699164 0,27.8373259 0,17.9398329 C0,8.04233983 8.0547486,0 17.9899441,0 C27.9251397,0 35.9798883,8.03231198 35.9798883,17.9398329 C35.9798883,27.8272981 27.9050279,35.9699164 17.9899441,35.9699164 Z M17.9899441,1.96545961 C9.15083799,1.96545961 1.96089385,9.12534819 1.96089385,17.9498607 C1.96089385,26.7743733 9.14078212,33.9342618 17.9899441,33.9342618 C26.8391061,33.9342618 34.0189944,26.7743733 34.0189944,17.9498607 C34.0089385,9.10529248 26.8290503,1.96545961 17.9899441,1.96545961 Z" id="Shape" fill="#AD1A1A" fill-rule="nonzero"></path>
            <path d="M17.9899441,33.8139276 L17.698324,33.713649 C17.2960894,33.5231198 7.08938547,29.1108635 7.08938547,20.9682451 L7.08938547,6.47799443 L28.9106145,6.47799443 L28.9106145,21.1788301 C28.9106145,28.9203343 18.7944134,33.4428969 18.301676,33.6233983 L17.9899441,33.8139276 Z M8.65810056,7.94206128 L8.65810056,20.978273 C8.65810056,27.4462396 16.4212291,31.4674095 18.0905028,32.2495822 C19.6793296,31.4674095 27.522905,27.345961 27.522905,21.2690808 L27.522905,8.03231198 L8.64804469,8.03231198 C8.65810056,8.03231198 8.65810056,7.94206128 8.65810056,7.94206128 Z" id="Shape" fill="#AD1A1A" fill-rule="nonzero"></path>
            <path d="M13.3843575,15.0016713 L13.1932961,14.9013928 C13.1932961,14.9013928 12.0067039,14.2094708 11.322905,13.7181058 C10.7296089,13.3169916 10.4379888,12.8356546 10.3273743,12.4345404 C10.3273743,12.3342618 10.3273743,11.1509749 10.3273743,8.81448468 L10.3273743,8.32311978 L16.5217877,8.32311978 L16.5217877,8.81448468 C16.5217877,11.1710306 16.5217877,12.3442897 16.5217877,12.4345404 C16.5217877,12.9259053 16.2301676,13.3169916 15.6368715,13.7181058 C14.852514,14.2094708 13.7664804,14.9013928 13.6759777,14.9013928 L13.3843575,15.0016713 Z M11.2022346,9.20557103 C11.2022346,10.4891365 11.2022346,12.1537604 11.2022346,12.3342618 C11.2022346,12.4345404 11.3932961,12.735376 11.6949721,12.9259053 C12.1877095,13.2167131 12.8815642,13.708078 13.2837989,13.918663 C13.6860335,13.7281337 14.4703911,13.2267409 14.9530726,12.9259053 C15.1441341,12.8256267 15.4458101,12.6350975 15.4458101,12.4345404 C15.4458101,12.2440111 15.4458101,10.6696379 15.4458101,9.30584958 L11.2122905,9.30584958 L11.2122905,9.20557103 L11.2022346,9.20557103 Z" id="Shape" fill="#AD1A1A" fill-rule="nonzero"></path>
            <path d="M22.9977654,15.0016713 L22.8067039,14.9013928 C22.8067039,14.9013928 21.6201117,14.2094708 20.9363128,13.7181058 C20.3430168,13.3169916 20.0513966,12.8356546 19.9407821,12.4345404 C19.9407821,12.3342618 19.9407821,11.1509749 19.9407821,8.81448468 L19.9407821,8.32311978 L26.1351955,8.32311978 L26.1351955,8.81448468 C26.1351955,11.1710306 26.1351955,12.3442897 26.1351955,12.4345404 C26.1351955,12.9259053 25.8435754,13.3169916 25.2502793,13.7181058 C24.4659218,14.2094708 23.3798883,14.9013928 23.2893855,14.9013928 L22.9977654,15.0016713 Z M20.8458101,9.20557103 C20.8458101,10.4891365 20.8458101,12.1537604 20.8458101,12.3342618 C20.8458101,12.4345404 21.0368715,12.735376 21.3385475,12.9259053 C21.8312849,13.2167131 22.5150838,13.708078 22.9273743,13.918663 C23.3296089,13.7281337 24.1039106,13.2267409 24.596648,12.9259053 C24.7877095,12.8256267 25.0893855,12.6350975 25.0893855,12.4345404 C25.0893855,12.2440111 25.0893855,10.6696379 25.0893855,9.30584958 L20.8659218,9.30584958 L20.8659218,9.20557103 L20.8458101,9.20557103 Z" id="Shape" fill="#AD1A1A" fill-rule="nonzero"></path>
            <rect id="Rectangle-path" fill="#AD1A1A" fill-rule="nonzero" x="7.47150838" y="15.2924791" width="21.227933" height="1.28356546"></rect>
            <path d="M17.9899441,28.1281337 C17.5877095,28.1281337 17.396648,27.8373259 17.2960894,27.7270195 C17.1955307,27.6267409 17.1050279,27.5364903 17.0044693,27.5364903 C16.4111732,27.5364903 16.0089385,27.5364903 15.5363128,27.6367688 C15.0435754,27.6367688 14.5407821,27.7370474 13.7664804,27.7370474 C12.9921788,27.7370474 12.3988827,27.7370474 12.3988827,27.7370474 L11.8055866,27.7370474 L11.8055866,17.8295265 L12.3988827,17.8295265 C12.8011173,17.8295265 13.2837989,17.8295265 14.0681564,17.8295265 C14.4703911,17.8295265 14.852514,17.7292479 15.3553073,17.7292479 C15.6469274,17.7292479 15.9486034,17.6289694 16.2402235,17.6289694 C16.9340782,17.5286908 17.5273743,17.7292479 17.6078212,17.7292479 C17.7988827,17.7292479 17.8994413,17.8295265 18.1005587,17.9197772 C18.2011173,17.8194986 18.3921788,17.8194986 18.5932961,17.7292479 C18.5932961,17.7292479 19.2871508,17.6289694 19.9608939,17.6289694 C20.252514,17.6289694 20.5541899,17.7292479 20.8458101,17.7292479 C21.3385475,17.8295265 21.7307263,17.8295265 22.1329609,17.8295265 C22.9072626,17.8295265 23.4100559,17.8295265 23.8022346,17.8295265 L24.3955307,17.8295265 L24.3955307,27.7370474 L23.8122905,27.7370474 C23.8122905,27.7370474 23.2189944,27.7370474 22.4446927,27.7370474 C21.6603352,27.7370474 21.1575419,27.6367688 20.6748603,27.6367688 C20.1821229,27.6367688 19.7899441,27.5364903 19.2067039,27.5364903 C19.0156425,27.5364903 19.0156425,27.5364903 18.9150838,27.7270195 C18.5832402,27.9376045 18.3821229,28.1281337 17.9899441,28.1281337 Z M17.0044693,26.4534819 C17.4972067,26.4534819 17.8893855,26.6440111 18.0905028,26.8545961 C18.2815642,26.6640669 18.6837989,26.4534819 19.1765363,26.4534819 C19.7698324,26.4534819 20.2625698,26.4534819 20.7653631,26.5537604 C21.2581006,26.5537604 21.7608939,26.654039 22.4346369,26.654039 C22.726257,26.654039 22.9273743,26.654039 23.1284916,26.654039 L23.1284916,19.0228412 C22.8368715,19.0228412 22.4346369,19.0228412 22.0424581,19.0228412 C21.6502793,19.0228412 21.1575419,18.9225627 20.6748603,18.9225627 C20.3832402,18.9225627 20.0815642,18.8222841 19.7899441,18.8222841 C19.2972067,18.7220056 18.7944134,18.8222841 18.7944134,18.8222841 C18.6938547,18.8222841 18.603352,18.9225627 18.603352,18.9225627 C18.603352,18.9225627 18.603352,18.9225627 18.7039106,18.8222841 L18.1106145,18.7220056 L17.5173184,18.8222841 C17.5173184,18.9225627 17.5173184,18.9225627 17.6178771,18.9225627 C17.6178771,18.9225627 17.6178771,18.9225627 17.4268156,18.8222841 C17.4268156,18.8222841 16.9340782,18.7220056 16.4312849,18.8222841 C16.1396648,18.8222841 15.8379888,18.9225627 15.5463687,18.9225627 C15.0536313,19.0228412 14.550838,19.0228412 14.1787709,19.0228412 C13.6860335,19.0228412 13.3944134,19.0228412 13.0927374,19.0228412 L13.0927374,26.654039 C13.2837989,26.654039 13.5854749,26.654039 13.7865922,26.654039 C14.4804469,26.654039 14.9731844,26.5537604 15.4558659,26.5537604 C15.9284916,26.4534819 16.3206704,26.4534819 17.0044693,26.4534819 Z" id="Shape" fill="#AD1A1A" fill-rule="nonzero"></path>
            <rect id="Rectangle-path" fill="#AD1A1A" fill-rule="nonzero" x="17.4871508" y="15.5933148" width="1.17653631" height="17.4384401"></rect>
            <rect id="Rectangle-path" fill="#AD1A1A" fill-rule="nonzero" x="13.7564246" y="20.0857939" width="2.55418994" height="1"></rect>
            <rect id="Rectangle-path" fill="#AD1A1A" fill-rule="nonzero" x="13.7564246" y="22.1415042" width="2.55418994" height="1"></rect>
            <rect id="Rectangle-path" fill="#AD1A1A" fill-rule="nonzero" x="13.7564246" y="24.2172702" width="2.55418994" height="1"></rect>
            <rect id="Rectangle-path" fill="#AD1A1A" fill-rule="nonzero" x="19.4581006" y="20.0857939" width="2.55418994" height="1"></rect>
            <rect id="Rectangle-path" fill="#AD1A1A" fill-rule="nonzero" x="19.4581006" y="22.1415042" width="2.55418994" height="1"></rect>
            <rect id="Rectangle-path" fill="#AD1A1A" fill-rule="nonzero" x="19.4581006" y="24.2172702" width="2.55418994" height="1"></rect>
            <path d="M43.008,16.36 C43.008,15.3359949 43.1879982,14.3160051 43.548,13.3 C43.9080018,12.2839949 44.4319966,11.376004 45.12,10.576 C45.8080034,9.775996 46.655995,9.12400252 47.664,8.62 C48.672005,8.11599748 49.8159936,7.864 51.096,7.864 C52.6160076,7.864 53.9159946,8.20799656 54.996,8.896 C56.0760054,9.58400344 56.8719974,10.4799945 57.384,11.584 L56.064,12.4 C55.7919986,11.8399972 55.460002,11.3680019 55.068,10.984 C54.675998,10.5999981 54.2560022,10.2880012 53.808,10.048 C53.3599978,9.8079988 52.8960024,9.63600052 52.416,9.532 C51.9359976,9.42799948 51.4640023,9.376 51,9.376 C49.9759949,9.376 49.0720039,9.58399792 48.288,10 C47.5039961,10.4160021 46.8440027,10.9599966 46.308,11.632 C45.7719973,12.3040034 45.3680014,13.0599958 45.096,13.9 C44.8239986,14.7400042 44.688,15.5919957 44.688,16.456 C44.688,17.4000047 44.8519984,18.3039957 45.18,19.168 C45.5080016,20.0320043 45.9559972,20.7959967 46.524,21.46 C47.0920028,22.1240033 47.7639961,22.651998 48.54,23.044 C49.3160039,23.436002 50.1599954,23.632 51.072,23.632 C51.5520024,23.632 52.0439975,23.5720006 52.548,23.452 C53.0520025,23.3319994 53.5399976,23.1400013 54.012,22.876 C54.4840024,22.6119987 54.919998,22.284002 55.32,21.892 C55.720002,21.499998 56.0559986,21.0240028 56.328,20.464 L57.72,21.184 C57.4479986,21.8240032 57.0640025,22.3879976 56.568,22.876 C56.0719975,23.3640024 55.520003,23.7759983 54.912,24.112 C54.303997,24.4480017 53.6600034,24.7039991 52.98,24.88 C52.2999966,25.0560009 51.6320033,25.144 50.976,25.144 C49.8079942,25.144 48.7360049,24.8880026 47.76,24.376 C46.7839951,23.8639974 45.9440035,23.1960041 45.24,22.372 C44.5359965,21.5479959 43.988002,20.6120052 43.596,19.564 C43.203998,18.5159948 43.008,17.4480054 43.008,16.36 Z M65.592,25.24 C64.6799954,25.24 63.8480038,25.0680017 63.096,24.724 C62.3439962,24.3799983 61.6920028,23.912003 61.14,23.32 C60.5879972,22.727997 60.1600015,22.0400039 59.856,21.256 C59.5519985,20.4719961 59.4,19.6480043 59.4,18.784 C59.4,17.9039956 59.5559984,17.0720039 59.868,16.288 C60.1800016,15.5039961 60.6119972,14.816003 61.164,14.224 C61.7160028,13.631997 62.3679962,13.1600018 63.12,12.808 C63.8720038,12.4559982 64.6959955,12.28 65.592,12.28 C66.4880045,12.28 67.3159962,12.4559982 68.076,12.808 C68.8360038,13.1600018 69.4919972,13.631997 70.044,14.224 C70.5960028,14.816003 71.0279984,15.5039961 71.34,16.288 C71.6520016,17.0720039 71.808,17.9039956 71.808,18.784 C71.808,19.6480043 71.6560015,20.4719961 71.352,21.256 C71.0479985,22.0400039 70.6200028,22.727997 70.068,23.32 C69.5159972,23.912003 68.8600038,24.3799983 68.1,24.724 C67.3399962,25.0680017 66.5040046,25.24 65.592,25.24 Z M61.056,18.808 C61.056,19.5120035 61.1759988,20.163997 61.416,20.764 C61.6560012,21.364003 61.979998,21.8919977 62.388,22.348 C62.796002,22.8040023 63.2759972,23.1599987 63.828,23.416 C64.3800028,23.6720013 64.9679969,23.8 65.592,23.8 C66.2160031,23.8 66.8039972,23.6680013 67.356,23.404 C67.9080028,23.1399987 68.3919979,22.7800023 68.808,22.324 C69.2240021,21.8679977 69.5519988,21.336003 69.792,20.728 C70.0320012,20.119997 70.152,19.4640035 70.152,18.76 C70.152,18.0719966 70.0320012,17.4200031 69.792,16.804 C69.5519988,16.1879969 69.2240021,15.6520023 68.808,15.196 C68.3919979,14.7399977 67.9080028,14.3800013 67.356,14.116 C66.8039972,13.8519987 66.2160031,13.72 65.592,13.72 C64.9679969,13.72 64.3840027,13.8519987 63.84,14.116 C63.2959973,14.3800013 62.8160021,14.7439977 62.4,15.208 C61.9839979,15.6720023 61.6560012,16.2119969 61.416,16.828 C61.1759988,17.4440031 61.056,18.1039965 61.056,18.808 Z M80.784,13.936 C79.6799945,13.9680002 78.7200041,14.2719971 77.904,14.848 C77.0879959,15.4240029 76.5120017,16.215995 76.176,17.224 L76.176,25 L74.544,25 L74.544,12.496 L76.08,12.496 L76.08,15.496 C76.5440023,14.5359952 77.1679961,13.7840027 77.952,13.24 C78.7360039,12.6959973 79.5759955,12.424 80.472,12.424 C80.6000006,12.424 80.7039996,12.4319999 80.784,12.448 L80.784,13.936 Z M93.48,25 L91.848,25 L91.848,18.016 C91.848,16.5279926 91.6280022,15.4480034 91.188,14.776 C90.7479978,14.1039966 90.0720046,13.768 89.16,13.768 C88.6799976,13.768 88.2000024,13.8559991 87.72,14.032 C87.2399976,14.2080009 86.796002,14.4559984 86.388,14.776 C85.979998,15.0960016 85.6160016,15.4759978 85.296,15.916 C84.9759984,16.3560022 84.7440007,16.8319974 84.6,17.344 L84.6,25 L82.968,25 L82.968,12.496 L84.456,12.496 L84.456,15.328 C84.9680026,14.4159954 85.6999952,13.6800028 86.652,13.12 C87.6040048,12.5599972 88.6399944,12.28 89.76,12.28 C90.4480034,12.28 91.0319976,12.4079987 91.512,12.664 C91.9920024,12.9200013 92.3759986,13.2799977 92.664,13.744 C92.9520014,14.2080023 93.1599994,14.7759966 93.288,15.448 C93.4160006,16.1200034 93.48,16.8639959 93.48,17.68 L93.48,25 Z M102.36,25.24 C101.447995,25.24 100.612004,25.0680017 99.852,24.724 C99.0919962,24.3799983 98.4320028,23.908003 97.872,23.308 C97.3119972,22.707997 96.8760016,22.0160039 96.564,21.232 C96.2519984,20.4479961 96.096,19.6080045 96.096,18.712 C96.096,17.8319956 96.2519984,17.0040039 96.564,16.228 C96.8760016,15.4519961 97.3079972,14.7720029 97.86,14.188 C98.4120028,13.6039971 99.0719962,13.1400017 99.84,12.796 C100.608004,12.4519983 101.439996,12.28 102.336,12.28 C103.248005,12.28 104.083996,12.4519983 104.844,12.796 C105.604004,13.1400017 106.255997,13.607997 106.8,14.2 C107.344003,14.792003 107.767998,15.4719962 108.072,16.24 C108.376002,17.0080038 108.528,17.8239957 108.528,18.688 L108.528,19.072 C108.528,19.2000006 108.52,19.2879998 108.504,19.336 L97.8,19.336 C97.8480002,20.0080034 98.0039987,20.6279972 98.268,21.196 C98.5320013,21.7640028 98.8719979,22.2559979 99.288,22.672 C99.7040021,23.0880021 100.179997,23.4119988 100.716,23.644 C101.252003,23.8760012 101.823997,23.992 102.432,23.992 C102.832002,23.992 103.231998,23.9360006 103.632,23.824 C104.032002,23.7119994 104.399998,23.560001 104.736,23.368 C105.072002,23.175999 105.375999,22.9400014 105.648,22.66 C105.920001,22.3799986 106.127999,22.0720017 106.272,21.736 L107.688,22.12 C107.495999,22.5840023 107.224002,23.0039981 106.872,23.38 C106.519998,23.7560019 106.112002,24.0839986 105.648,24.364 C105.183998,24.6440014 104.672003,24.8599992 104.112,25.012 C103.551997,25.1640008 102.968003,25.24 102.36,25.24 Z M106.968,18.088 C106.92,17.4159966 106.764001,16.8040028 106.5,16.252 C106.235999,15.6999972 105.900002,15.224002 105.492,14.824 C105.083998,14.423998 104.612003,14.1120011 104.076,13.888 C103.539997,13.6639989 102.968003,13.552 102.36,13.552 C101.751997,13.552 101.176003,13.6639989 100.632,13.888 C100.087997,14.1120011 99.612002,14.423998 99.204,14.824 C98.795998,15.224002 98.4680012,15.7039972 98.22,16.264 C97.9719988,16.8240028 97.8240002,17.4319967 97.776,18.088 L106.968,18.088 Z M111.12,7.48 L112.752,7.48 L112.752,22.168 C112.752,22.6320023 112.879999,22.9959987 113.136,23.26 C113.392001,23.5240013 113.751998,23.656 114.216,23.656 C114.392001,23.656 114.599999,23.6320002 114.84,23.584 C115.080001,23.5359998 115.303999,23.4720004 115.512,23.392 L115.8,24.712 C115.495998,24.8400006 115.124002,24.9439996 114.684,25.024 C114.243998,25.1040004 113.864002,25.144 113.544,25.144 C112.791996,25.144 112.200002,24.9320021 111.768,24.508 C111.335998,24.0839979 111.12,23.4880038 111.12,22.72 L111.12,7.48 Z M117.648,7.48 L119.28,7.48 L119.28,22.168 C119.28,22.6320023 119.407999,22.9959987 119.664,23.26 C119.920001,23.5240013 120.279998,23.656 120.744,23.656 C120.920001,23.656 121.127999,23.6320002 121.368,23.584 C121.608001,23.5359998 121.831999,23.4720004 122.04,23.392 L122.328,24.712 C122.023998,24.8400006 121.652002,24.9439996 121.212,25.024 C120.771998,25.1040004 120.392002,25.144 120.072,25.144 C119.319996,25.144 118.728002,24.9320021 118.296,24.508 C117.863998,24.0839979 117.648,23.4880038 117.648,22.72 L117.648,7.48 Z M137.472,23.608 C138.544005,23.608 139.435996,23.404002 140.148,22.996 C140.860004,22.587998 141.427998,22.0520033 141.852,21.388 C142.276002,20.7239967 142.571999,19.9680042 142.74,19.12 C142.908001,18.2719958 142.992,17.4160043 142.992,16.552 L142.992,7.96 L144.672,7.96 L144.672,16.552 C144.672,17.7040058 144.544001,18.7959948 144.288,19.828 C144.031999,20.8600052 143.620003,21.7679961 143.052,22.552 C142.483997,23.3360039 141.744005,23.9599977 140.832,24.424 C139.919995,24.8880023 138.808007,25.12 137.496,25.12 C136.151993,25.12 135.020005,24.8760024 134.1,24.388 C133.179995,23.8999976 132.440003,23.256004 131.88,22.456 C131.319997,21.655996 130.920001,20.7440051 130.68,19.72 C130.439999,18.6959949 130.32,17.6400054 130.32,16.552 L130.32,7.96 L131.976,7.96 L131.976,16.552 C131.976,17.4480045 132.063999,18.3199958 132.24,19.168 C132.416001,20.0160042 132.715998,20.7679967 133.14,21.424 C133.564002,22.0800033 134.127996,22.607998 134.832,23.008 C135.536004,23.408002 136.415995,23.608 137.472,23.608 Z M158.856,25 L157.224,25 L157.224,18.016 C157.224,16.5279926 157.004002,15.4480034 156.564,14.776 C156.123998,14.1039966 155.448005,13.768 154.536,13.768 C154.055998,13.768 153.576002,13.8559991 153.096,14.032 C152.615998,14.2080009 152.172002,14.4559984 151.764,14.776 C151.355998,15.0960016 150.992002,15.4759978 150.672,15.916 C150.351998,16.3560022 150.120001,16.8319974 149.976,17.344 L149.976,25 L148.344,25 L148.344,12.496 L149.832,12.496 L149.832,15.328 C150.344003,14.4159954 151.075995,13.6800028 152.028,13.12 C152.980005,12.5599972 154.015994,12.28 155.136,12.28 C155.824003,12.28 156.407998,12.4079987 156.888,12.664 C157.368002,12.9200013 157.751999,13.2799977 158.04,13.744 C158.328001,14.2080023 158.535999,14.7759966 158.664,15.448 C158.792001,16.1200034 158.856,16.8639959 158.856,17.68 L158.856,25 Z M162.336,25 L162.336,12.496 L163.968,12.496 L163.968,25 L162.336,25 Z M162.336,9.88 L162.336,7.48 L163.968,7.48 L163.968,9.88 L162.336,9.88 Z M171.312,25 L166.224,12.496 L167.904,12.496 L172.2,23.488 L176.52,12.496 L178.104,12.496 L173.016,25 L171.312,25 Z M185.76,25.24 C184.847995,25.24 184.012004,25.0680017 183.252,24.724 C182.491996,24.3799983 181.832003,23.908003 181.272,23.308 C180.711997,22.707997 180.276002,22.0160039 179.964,21.232 C179.651998,20.4479961 179.496,19.6080045 179.496,18.712 C179.496,17.8319956 179.651998,17.0040039 179.964,16.228 C180.276002,15.4519961 180.707997,14.7720029 181.26,14.188 C181.812003,13.6039971 182.471996,13.1400017 183.24,12.796 C184.008004,12.4519983 184.839996,12.28 185.736,12.28 C186.648005,12.28 187.483996,12.4519983 188.244,12.796 C189.004004,13.1400017 189.655997,13.607997 190.2,14.2 C190.744003,14.792003 191.167998,15.4719962 191.472,16.24 C191.776002,17.0080038 191.928,17.8239957 191.928,18.688 L191.928,19.072 C191.928,19.2000006 191.92,19.2879998 191.904,19.336 L181.2,19.336 C181.248,20.0080034 181.403999,20.6279972 181.668,21.196 C181.932001,21.7640028 182.271998,22.2559979 182.688,22.672 C183.104002,23.0880021 183.579997,23.4119988 184.116,23.644 C184.652003,23.8760012 185.223997,23.992 185.832,23.992 C186.232002,23.992 186.631998,23.9360006 187.032,23.824 C187.432002,23.7119994 187.799998,23.560001 188.136,23.368 C188.472002,23.175999 188.775999,22.9400014 189.048,22.66 C189.320001,22.3799986 189.527999,22.0720017 189.672,21.736 L191.088,22.12 C190.895999,22.5840023 190.624002,23.0039981 190.272,23.38 C189.919998,23.7560019 189.512002,24.0839986 189.048,24.364 C188.583998,24.6440014 188.072003,24.8599992 187.512,25.012 C186.951997,25.1640008 186.368003,25.24 185.76,25.24 Z M190.368,18.088 C190.32,17.4159966 190.164001,16.8040028 189.9,16.252 C189.635999,15.6999972 189.300002,15.224002 188.892,14.824 C188.483998,14.423998 188.012003,14.1120011 187.476,13.888 C186.939997,13.6639989 186.368003,13.552 185.76,13.552 C185.151997,13.552 184.576003,13.6639989 184.032,13.888 C183.487997,14.1120011 183.012002,14.423998 182.604,14.824 C182.195998,15.224002 181.868001,15.7039972 181.62,16.264 C181.371999,16.8240028 181.224,17.4319967 181.176,18.088 L190.368,18.088 Z M200.688,13.936 C199.583994,13.9680002 198.624004,14.2719971 197.808,14.848 C196.991996,15.4240029 196.416002,16.215995 196.08,17.224 L196.08,25 L194.448,25 L194.448,12.496 L195.984,12.496 L195.984,15.496 C196.448002,14.5359952 197.071996,13.7840027 197.856,13.24 C198.640004,12.6959973 199.479996,12.424 200.376,12.424 C200.504001,12.424 200.608,12.4319999 200.688,12.448 L200.688,13.936 Z M207.024,25.24 C206.047995,25.24 205.096005,25.0800016 204.168,24.76 C203.239995,24.4399984 202.440003,23.976003 201.768,23.368 L202.512,22.264 C203.216004,22.8400029 203.931996,23.2719986 204.66,23.56 C205.388004,23.8480014 206.167996,23.992 207,23.992 C208.008005,23.992 208.811997,23.788002 209.412,23.38 C210.012003,22.971998 210.312,22.3920038 210.312,21.64 C210.312,21.2879982 210.232001,20.9960012 210.072,20.764 C209.911999,20.5319988 209.676002,20.3280009 209.364,20.152 C209.051998,19.9759991 208.660002,19.8200007 208.188,19.684 C207.715998,19.5479993 207.168003,19.4080007 206.544,19.264 C205.823996,19.0879991 205.200003,18.9120009 204.672,18.736 C204.143997,18.5599991 203.708002,18.3600011 203.364,18.136 C203.019998,17.9119989 202.764001,17.6360016 202.596,17.308 C202.427999,16.9799984 202.344,16.5680025 202.344,16.072 C202.344,15.4479969 202.467999,14.8960024 202.716,14.416 C202.964001,13.9359976 203.299998,13.5400016 203.724,13.228 C204.148002,12.9159984 204.643997,12.6800008 205.212,12.52 C205.780003,12.3599992 206.383997,12.28 207.024,12.28 C207.984005,12.28 208.855996,12.4359984 209.64,12.748 C210.424004,13.0600016 211.055998,13.4719974 211.536,13.984 L210.744,14.944 C210.279998,14.4639976 209.716003,14.1040012 209.052,13.864 C208.387997,13.6239988 207.696004,13.504 206.976,13.504 C206.543998,13.504 206.144002,13.5479996 205.776,13.636 C205.407998,13.7240004 205.084001,13.863999 204.804,14.056 C204.523999,14.248001 204.304001,14.4919985 204.144,14.788 C203.983999,15.0840015 203.904,15.431998 203.904,15.832 C203.904,16.1680017 203.959999,16.439999 204.072,16.648 C204.184001,16.856001 204.367999,17.0359992 204.624,17.188 C204.880001,17.3400008 205.203998,17.4759994 205.596,17.596 C205.988002,17.7160006 206.463997,17.8399994 207.024,17.968 C207.824004,18.160001 208.527997,18.351999 209.136,18.544 C209.744003,18.736001 210.251998,18.9599987 210.66,19.216 C211.068002,19.4720013 211.375999,19.7839982 211.584,20.152 C211.792001,20.5200018 211.896,20.9679974 211.896,21.496 C211.896,22.6480058 211.456004,23.5599966 210.576,24.232 C209.695996,24.9040034 208.512007,25.24 207.024,25.24 Z M214.56,25 L214.56,12.496 L216.192,12.496 L216.192,25 L214.56,25 Z M214.56,9.88 L214.56,7.48 L216.192,7.48 L216.192,9.88 L214.56,9.88 Z M225.792,24.4 C225.696,24.4480002 225.556001,24.5119996 225.372,24.592 C225.187999,24.6720004 224.976001,24.7519996 224.736,24.832 C224.495999,24.9120004 224.224002,24.9839997 223.92,25.048 C223.615998,25.1120003 223.296002,25.144 222.96,25.144 C222.607998,25.144 222.272002,25.0960005 221.952,25 C221.631998,24.9039995 221.352001,24.756001 221.112,24.556 C220.871999,24.355999 220.680001,24.1040015 220.536,23.8 C220.391999,23.4959985 220.32,23.144002 220.32,22.744 L220.32,13.792 L218.592,13.792 L218.592,12.496 L220.32,12.496 L220.32,8.272 L221.952,8.272 L221.952,12.496 L224.832,12.496 L224.832,13.792 L221.952,13.792 L221.952,22.288 C221.984,22.7520023 222.147999,23.0919989 222.444,23.308 C222.740001,23.5240011 223.079998,23.632 223.464,23.632 C223.928002,23.632 224.335998,23.5560008 224.688,23.404 C225.040002,23.2519992 225.264,23.1440003 225.36,23.08 L225.792,24.4 Z M228.552,28.84 C228.680001,28.8560001 228.803999,28.868 228.924,28.876 C229.044001,28.884 229.159999,28.888 229.272,28.888 C229.560001,28.888 229.787999,28.8480004 229.956,28.768 C230.124001,28.6879996 230.287999,28.5120014 230.448,28.24 C230.608001,27.9679986 230.787999,27.5760026 230.988,27.064 C231.188001,26.5519974 231.471998,25.8640043 231.84,25 L226.392,12.496 L228.072,12.496 L232.704,23.488 L237,12.496 L238.56,12.496 L232.08,28.624 C231.903999,29.0880023 231.612002,29.4919983 231.204,29.836 C230.795998,30.1800017 230.240004,30.352 229.536,30.352 C229.375999,30.352 229.224001,30.348 229.08,30.34 C228.935999,30.332 228.760001,30.3120002 228.552,30.28 L228.552,28.84 Z" id="Cornell-University" fill="#AD1A1A"></path>
            <path d="M245.136,25 L245.136,7.96 L246.816,7.96 L246.816,23.512 L256.656,23.512 L256.656,25 L245.136,25 Z M258.792,25 L258.792,12.496 L260.424,12.496 L260.424,25 L258.792,25 Z M258.792,9.88 L258.792,7.48 L260.424,7.48 L260.424,9.88 L258.792,9.88 Z M270.144,25.24 C269.151995,25.24 268.244004,24.9920025 267.42,24.496 C266.595996,23.9999975 265.952002,23.3600039 265.488,22.576 L265.488,25 L264.024,25 L264.024,7.48 L265.656,7.48 L265.656,15.112 C266.216003,14.2639958 266.887996,13.5800026 267.672,13.06 C268.456004,12.5399974 269.367995,12.28 270.408,12.28 C271.288004,12.28 272.075997,12.4639982 272.772,12.832 C273.468003,13.2000018 274.059998,13.6919969 274.548,14.308 C275.036002,14.9240031 275.411999,15.6199961 275.676,16.396 C275.940001,17.1720039 276.072,17.9679959 276.072,18.784 C276.072,19.6640044 275.920002,20.4959961 275.616,21.28 C275.311998,22.0640039 274.896003,22.7479971 274.368,23.332 C273.839997,23.9160029 273.212004,24.3799983 272.484,24.724 C271.755996,25.0680017 270.976004,25.24 270.144,25.24 Z M269.76,23.8 C270.448003,23.8 271.075997,23.6600014 271.644,23.38 C272.212003,23.0999986 272.699998,22.7240024 273.108,22.252 C273.516002,21.7799976 273.835999,21.244003 274.068,20.644 C274.300001,20.043997 274.416,19.4240032 274.416,18.784 C274.416,18.1279967 274.308001,17.496003 274.092,16.888 C273.875999,16.279997 273.572002,15.7400024 273.18,15.268 C272.787998,14.7959976 272.316003,14.4200014 271.764,14.14 C271.211997,13.8599986 270.608003,13.72 269.952,13.72 C269.455998,13.72 268.992002,13.8039992 268.56,13.972 C268.127998,14.1400008 267.728002,14.3679986 267.36,14.656 C266.991998,14.9440014 266.664001,15.2759981 266.376,15.652 C266.087999,16.0280019 265.848001,16.4239979 265.656,16.84 L265.656,20.728 C265.72,21.1600022 265.891999,21.5639981 266.172,21.94 C266.452001,22.3160019 266.787998,22.6399986 267.18,22.912 C267.572002,23.1840014 267.995998,23.3999992 268.452,23.56 C268.908002,23.7200008 269.343998,23.8 269.76,23.8 Z M285.072,13.936 C283.967994,13.9680002 283.008004,14.2719971 282.192,14.848 C281.375996,15.4240029 280.800002,16.215995 280.464,17.224 L280.464,25 L278.832,25 L278.832,12.496 L280.368,12.496 L280.368,15.496 C280.832002,14.5359952 281.455996,13.7840027 282.24,13.24 C283.024004,12.6959973 283.863996,12.424 284.76,12.424 C284.888001,12.424 284.992,12.4319999 285.072,12.448 L285.072,13.936 Z M290.4,25.24 C289.807997,25.24 289.260003,25.140001 288.756,24.94 C288.251997,24.739999 287.812002,24.4640018 287.436,24.112 C287.059998,23.7599982 286.768001,23.3480024 286.56,22.876 C286.351999,22.4039976 286.248,21.8960027 286.248,21.352 C286.248,20.8079973 286.375999,20.3040023 286.632,19.84 C286.888001,19.3759977 287.247998,18.9760017 287.712,18.64 C288.176002,18.3039983 288.727997,18.0440009 289.368,17.86 C290.008003,17.6759991 290.711996,17.584 291.48,17.584 C292.120003,17.584 292.767997,17.6399994 293.424,17.752 C294.080003,17.8640006 294.663997,18.023999 295.176,18.232 L295.176,17.104 C295.176,15.9999945 294.864003,15.1240032 294.24,14.476 C293.615997,13.8279968 292.752006,13.504 291.648,13.504 C291.007997,13.504 290.352003,13.6319987 289.68,13.888 C289.007997,14.1440013 288.328003,14.5119976 287.64,14.992 L287.064,13.912 C288.680008,12.8239946 290.247992,12.28 291.768,12.28 C293.336008,12.28 294.567996,12.7199956 295.464,13.6 C296.360004,14.4800044 296.808,15.6959922 296.808,17.248 L296.808,22.888 C296.808,23.3360022 297.007998,23.56 297.408,23.56 L297.408,25 C297.135999,25.0480002 296.928001,25.072 296.784,25.072 C296.367998,25.072 296.044001,24.968001 295.812,24.76 C295.579999,24.551999 295.456,24.2640018 295.44,23.896 L295.392,22.912 C294.815997,23.6640038 294.092004,24.239998 293.22,24.64 C292.347996,25.040002 291.408005,25.24 290.4,25.24 Z M290.784,23.992 C291.632004,23.992 292.411996,23.8320016 293.124,23.512 C293.836004,23.1919984 294.375998,22.7680026 294.744,22.24 C294.888001,22.0959993 294.996,21.9400008 295.068,21.772 C295.14,21.6039992 295.176,21.4480007 295.176,21.304 L295.176,19.264 C294.631997,19.055999 294.068003,18.8960006 293.484,18.784 C292.899997,18.6719994 292.304003,18.616 291.696,18.616 C290.543994,18.616 289.608004,18.8559976 288.888,19.336 C288.167996,19.8160024 287.808,20.4479961 287.808,21.232 C287.808,21.6160019 287.883999,21.9759983 288.036,22.312 C288.188001,22.6480017 288.395999,22.9399988 288.66,23.188 C288.924001,23.4360012 289.239998,23.6319993 289.608,23.776 C289.976002,23.9200007 290.367998,23.992 290.784,23.992 Z M306.576,13.936 C305.471994,13.9680002 304.512004,14.2719971 303.696,14.848 C302.879996,15.4240029 302.304002,16.215995 301.968,17.224 L301.968,25 L300.336,25 L300.336,12.496 L301.872,12.496 L301.872,15.496 C302.336002,14.5359952 302.959996,13.7840027 303.744,13.24 C304.528004,12.6959973 305.367996,12.424 306.264,12.424 C306.392001,12.424 306.496,12.4319999 306.576,12.448 L306.576,13.936 Z M309.48,28.84 C309.608001,28.8560001 309.731999,28.868 309.852,28.876 C309.972001,28.884 310.087999,28.888 310.2,28.888 C310.488001,28.888 310.715999,28.8480004 310.884,28.768 C311.052001,28.6879996 311.215999,28.5120014 311.376,28.24 C311.536001,27.9679986 311.715999,27.5760026 311.916,27.064 C312.116001,26.5519974 312.399998,25.8640043 312.768,25 L307.32,12.496 L309,12.496 L313.632,23.488 L317.928,12.496 L319.488,12.496 L313.008,28.624 C312.831999,29.0880023 312.540002,29.4919983 312.132,29.836 C311.723998,30.1800017 311.168004,30.352 310.464,30.352 C310.303999,30.352 310.152001,30.348 310.008,30.34 C309.863999,30.332 309.688001,30.3120002 309.48,30.28 L309.48,28.84 Z" id="Library" fill="#303C42"></path>
        </g>
    </g>
</svg>