<?xml version="1.0" encoding="utf-8"?>
<!-- Generator: Adobe Illustrator 18.1.1, SVG Export Plug-In . SVG Version: 6.00 Build 0)  -->
<svg version="1.1" id="Layer_1" xmlns="http://www.w3.org/2000/svg" xmlns:xlink="http://www.w3.org/1999/xlink" x="0px" y="0px"
	 viewBox="5.7 1034.3 1599.8 358.6" enable-background="new 5.7 1034.3 1599.8 358.6" xml:space="preserve">
<g id="Layer_2">
</g>
<g>
	<g id="Layer_1_1_">
		<path fill="#FFFFFF" d="M184.6,1392.9c-98.8,0-178.9-81.1-178.9-179.8s80.1-178.9,178.9-178.9s178.9,80.1,178.9,178.9
			C363.5,1311.7,283.2,1392.9,184.6,1392.9z M184.6,1053.8c-87.9,0-159.4,71.4-159.4,159.4c0,88,71.4,159.4,159.4,159.4
			S344,1301.2,344,1213.2C343.9,1125,272.5,1053.8,184.6,1053.8z"/>
		<path fill="#FFFFFF" stroke="#000000" stroke-width="0.1561" d="M142.5,1232.7"/>
		<path fill="#FFFFFF" d="M184.6,1371.4l-2.9-1c-4-1.9-105.5-45.9-105.5-127.1v-144.5h217v146.6c0,77.2-100.6,122.3-105.5,124.1
			L184.6,1371.4z M91.8,1113.4v130c0,64.5,77.2,104.6,93.8,112.4c15.8-7.8,93.8-48.9,93.8-109.5v-132H91.7
			C91.8,1114.3,91.8,1113.4,91.8,1113.4z"/>
		<path fill="#FFFFFF" d="M138.8,1183.8l-1.9-1c0,0-11.8-6.9-18.6-11.8c-5.9-4-8.8-8.8-9.9-12.8c0-1,0-12.8,0-36.1v-4.9H170v4.9
			c0,23.5,0,35.2,0,36.1c0,4.9-2.9,8.8-8.8,12.8c-7.8,4.9-18.6,11.8-19.5,11.8L138.8,1183.8z M117.1,1126c0,12.8,0,29.4,0,31.2
			c0,1,1.9,4,4.9,5.9c4.9,2.9,11.8,7.8,15.8,9.9c4-1.9,11.8-6.9,16.6-9.9c1.9-1,4.9-2.9,4.9-4.9c0-1.9,0-17.6,0-31.2h-42.1V1126z"/>
		<path fill="#FFFFFF" d="M234.4,1183.8l-1.9-1c0,0-11.8-6.9-18.6-11.8c-5.9-4-8.8-8.8-9.9-12.8c0-1,0-12.8,0-36.1v-4.9h61.6v4.9
			c0,23.5,0,35.2,0,36.1c0,4.9-2.9,8.8-8.8,12.8c-7.8,4.9-18.6,11.8-19.5,11.8L234.4,1183.8z M213,1126c0,12.8,0,29.4,0,31.2
			c0,1,1.9,4,4.9,5.9c4.9,2.9,11.7,7.8,15.8,9.9c4-1.9,11.7-6.9,16.6-9.9c1.9-1,4.9-2.9,4.9-4.9c0-1.9,0-17.6,0-31.2h-42v-1H213z"/>
		<rect x="80" y="1186.7" fill="#FFFFFF" width="211.1" height="12.8"/>
		<g>
			<g>
				<path fill="#FFFFFF" d="M184.6,1314.7c-4,0-5.9-2.9-6.9-4c-1-1-1.9-1.9-2.9-1.9c-5.9,0-9.9,0-14.6,1c-4.9,0-9.9,1-17.6,1
					s-13.6,0-13.6,0h-5.9V1212h5.9c4,0,8.8,0,16.6,0c4,0,7.8-1,12.8-1c2.9,0,5.9-1,8.8-1c6.9-1,12.8,1,13.6,1c1.9,0,2.9,1,4.9,1.9
					c1-1,2.9-1,4.9-1.9c0,0,6.9-1,13.6-1c2.9,0,5.9,1,8.8,1c4.9,1,8.8,1,12.8,1c7.7,0,12.7,0,16.6,0h5.9v98.8h-5.8c0,0-5.9,0-13.6,0
					c-7.8,0-12.8-1-17.6-1c-4.9,0-8.8-1-14.6-1c-1.9,0-1.9,0-2.9,1.9C190.5,1312.8,188.5,1314.7,184.6,1314.7z M174.8,1298
					c4.9,0,8.8,1.9,10.8,4c1.9-1.9,5.9-4,10.8-4c5.9,0,10.8,0,15.8,1c4.9,0,9.9,1,16.6,1c2.9,0,4.9,0,6.9,0v-76.1
					c-2.9,0-6.9,0-10.8,0c-3.9,0-8.8-1-13.6-1c-2.9,0-5.9-1-8.8-1c-4.9-1-9.9,0-9.9,0c-1,0-1.9,1-1.9,1s0,0,1-1l-5.9-1l-5.9,1
					c0,1,0,1,1,1c0,0,0,0-1.9-1l0,0c0,0-4.9-1-9.9,0c-2.9,0-5.9,1-8.8,1c-4.9,1-9.9,1-13.6,1c-4.9,0-7.8,0-10.8,0v76.1
					c1.9,0,4.9,0,6.9,0c6.9,0,11.8-1,16.6-1C164.1,1298,168,1298,174.8,1298z"/>
			</g>
		</g>
		<rect x="112.3" y="1135.9" fill="#FFFFFF" width="50.7" height="8.8"/>
		<rect x="179.6" y="1189.7" fill="#FFFFFF" width="11.7" height="173.9"/>
		<polygon fill="#FFFFFF" points="256,1155.4 233.5,1140.8 213,1155.4 207.1,1148.5 233.5,1130 260.8,1148.5 		"/>
		<path fill="#FFFFFF" stroke="#000000" d="M232.5,1156.4"/>
		<rect x="142.5" y="1234.5" fill="#FFFFFF" width="25.4" height="8.8"/>
		<rect x="142.5" y="1255" fill="#FFFFFF" width="25.4" height="8.8"/>
		<rect x="142.5" y="1275.7" fill="#FFFFFF" width="25.4" height="8.8"/>
		<rect x="199.2" y="1234.5" fill="#FFFFFF" width="25.4" height="8.8"/>
		<rect x="199.2" y="1255" fill="#FFFFFF" width="25.4" height="8.8"/>
		<rect x="199.2" y="1275.7" fill="#FFFFFF" width="25.4" height="8.8"/>
	</g>
	<g id="Layer_3">
		<g>
			<path fill="#FFFFFF" d="M524.6,1262.9c-8.8,5.9-24.5,8.8-34.2,8.8c-37.1,0-62.5-21.6-62.5-56.6c0-17.6,6.9-32.2,19.5-42
				c11.8-9.9,27.2-14.6,44.9-14.6c14.6,0,28.4,4,36.1,6.9c-1.9,7.8-2.9,15.7-2.9,23.5h-4.9v-11.9c0-4-5.9-6.9-13.6-9.9
				c-4.9-1.9-11.8-2.9-17.6-2.9c-29.4,0-44.9,21.6-44.9,47.9c0,31.2,20.5,50.8,51.7,50.8c11.8,0,24.5-4,31.3-9.9l1,1.9L524.6,1262.9
				z"/>
			<path fill="#FFFFFF" d="M563.9,1270.8c-19.5,0-33.1-15.8-33.1-36.1c0-23.5,14.6-40.1,40.1-40.1c19.5,0,35.2,15.8,35.2,35.2
				c0,23.5-16.6,41.1-41.1,41.1h-1v-0.1L563.9,1270.8L563.9,1270.8z M545.2,1227.8c0,16.6,5.9,38.1,26.4,38.1
				c14.6,0,20.5-14.6,20.5-28.4c0-20.5-9.9-37.1-24.5-37.1C550.1,1199.4,545.2,1213,545.2,1227.8z"/>
			<path fill="#FFFFFF" d="M617.5,1216.9c0-4.9,0-8.8-1-9.9c-1-1-2.9-1.9-5.9-1.9h-5.9v-4c8.8-1,18.6-4,24.5-6.9l1,1v15.8l0,0
				l8.8-9.9c4-4.9,8.7-6.9,12.7-6.9c2.9,0,5.9,1,6.9,1.9l-1,18.6h-2.9c-1.9-4-4.9-6.9-10.8-6.9c-6.9,0-13.6,6.9-13.6,17.6v27.2
				c0,4,0,7.8,1,8.8s2.9,1.9,6.9,1.9h7.8v4.9c-7.8,0-14.6,0-22.5,0c-7.8,0-13.6,0-19.5,0v-4.9h6.9c2.9,0,4-1,4.9-1.9
				c1-1.9,1-4.9,1-8.8v-36.1h0.6v0.2H617.5L617.5,1216.9z"/>
			<path fill="#FFFFFF" d="M689.9,1252.2c0,4,0,7.8,1,8.8c1,1,1.9,1.9,4.9,1.9h6.9v4.9c-5.9,0-11.8,0-19.5,0s-13.6,0-19.5,0v-4.9
				h6.9c2.9,0,4-1,4.9-1.9c1-1.9,1-4.9,1-8.8v-35.3c0-4.9,0-8.8-1-9.9s-2.9-1.9-5.9-1.9h-4.9v-4c8.8-1,18.6-4,24.5-6.9l1,1v13.6l0,0
				l11.8-9.9c4-2.9,6.9-4,12.8-4c18.6,0,25.4,9.9,25.4,27.2v30.2c0,4,0,7.8,1,8.8s1.9,1.9,4.9,1.9h6.9v4.9c-4,0-8.8,0-12.8,0
				c-4,0-8.8,0-12.8,0v-44c0-12.8-7.8-19.5-17.6-19.5c-9.9,0-19.5,7.8-19.5,14.6L689.9,1252.2L689.9,1252.2z"/>
			<path fill="#FFFFFF" d="M817.9,1222.8c0,1.9,0,4,0,6.9c-9.9,1.9-18.6,1.9-28.4,1.9H767c0,18.6,8.8,31.2,28.4,31.2
				c7.8,0,13.6-4,19.5-7.8l1.9,1.9l-2.9,4.9c-1,1.9-14.6,8.8-25.4,8.8c-23.5,0-36.1-14.6-36.1-36.1c0-15.7,4-24.5,11.8-30.2
				c2.9-1.9,5.9-4.9,9.9-5.9c5.9-2.9,9.9-4,15.8-4C805.2,1194.4,817.9,1205.3,817.9,1222.8z M767.1,1223.8v1.9c6.9,1,13.6,1,19.5,1
				s11.8,0,17.6,0c0-14.6-4.9-26.4-16.6-26.4C775.9,1199.4,767.1,1208.3,767.1,1223.8z"/>
			<path fill="#FFFFFF" d="M832.5,1171c0-4,0-6.9-4-6.9h-8.8v-3.9c7.8-1,16.6-2.9,24.5-5.9l1,1v96.8c0,4,0,7.8,1,8.8
				c1,1,1.9,1.9,4.9,1.9h6.9v4.9c-5.9,0-11.8,0-19.5,0s-13.6,0-19.5,0v-4.9h6.9c2.9,0,4-1,4.9-1.9c1-1.9,1-4.9,1-8.8V1171H832.5z"/>
			<path fill="#FFFFFF" d="M871.8,1171c0-4,0-6.9-4-6.9H859v-3.9c7.8-1,16.6-2.9,24.5-5.9l1,1v96.8c0,4,0,7.8,1,8.8
				c1,1,1.9,1.9,4.9,1.9h6.9v4.9c-5.9,0-11.8,0-19.5,0c-7.8,0-13.6,0-19.5,0v-4.9h6.9c2.9,0,4-1,4.9-1.9c1-1.9,1-4.9,1-8.8V1171
				H871.8z"/>
			<path fill="#FFFFFF" d="M945,1178.9c0-5.9,0-9.9-1-11.8s-2.9-1.9-6.9-1.9h-7.8v-5c7.8,0,15.8,0,23.5,0c6.9,0,14.6,0,22.5,0v4.9
				h-7.8c-4,0-5.9,1-6.9,1.9c-1,1.9-1,5.9-1,11.8v53.8c0,22.5,11.8,28.4,32.2,28.4c16.6,0,32.2-6.9,32.2-32.2v-49.9
				c0-5.9,0-9.9-1-11.8s-2.9-1.9-6.9-1.9h-6.9v-4.8c5.9,0,12.8,0,18.6,0s11.8,0,18.6,0v4.9h-6.8c-4,0-5.9,1-6.9,1.9
				c-1,1.9-1,5.9-1,11.8v44.9c0,33.1-12.8,47-44,47c-26.4,0-42-7.8-42-36.1v-55.8L945,1178.9L945,1178.9z"/>
			<path fill="#FFFFFF" d="M1067.1,1252.2c0,4,0,7.8,1,8.8c1,1,1.9,1.9,4.9,1.9h6.9v4.9c-5.9,0-11.8,0-19.5,0s-13.6,0-19.5,0v-4.9
				h6.9c2.9,0,4-1,4.9-1.9c1-1.9,1-4.9,1-8.8v-35.3c0-4.9,0-8.8-1-9.9s-2.9-1.9-5.9-1.9h-5.9v-4c8.8-1,18.6-4,24.5-6.9l1,1v13.6l0,0
				l11.8-9.9c4-2.9,6.9-4,12.8-4c18.6,0,25.4,9.9,25.4,27.2v30.2c0,4,0,7.8,1,8.8c1,1,1.9,1.9,4.9,1.9h6.9v4.9c-4,0-8.8,0-12.8,0
				c-4,0-8.8,0-12.8,0v-44c0-12.8-7.8-19.5-17.6-19.5c-9.9,0-19.5,7.8-19.5,14.6v32.6h0.8L1067.1,1252.2L1067.1,1252.2z"/>
			<path fill="#FFFFFF" d="M1161,1252.2c0,4,0,7.8,1,8.8c1,1,1.9,1.9,4.9,1.9h6.9v4.9c-5.9,0-11.8,0-19.5,0c-7.7,0-13.6,0-19.5,0
				v-4.9h6.9c2.9,0,4-1,4.9-1.9c1-1.9,1-4.9,1-8.8v-35.3c0-4.9,0-8.8-1-9.9s-2.9-1.9-5.9-1.9h-5.9v-4c8.8-1,18.6-4,24.5-6.9l1,1
				v56.8h0.8V1252.2z M1162,1169c0,4.9-4,8.8-8.8,8.8c-4.9,0-8.8-4-8.8-8.8c0-4.8,4-8.8,8.8-8.8S1162,1164.2,1162,1169z"/>
			<path fill="#FFFFFF" d="M1219.6,1252.2c-2.9,5.9-4,11.8-6.9,16.6h-7.8l-27.5-63.5c-1-1.9-1.9-4.9-4.9-4.9h-4.9v-4
				c5.9,0,11.8,0,18.6,0c5.9,0,11.8,0,18.6,0v4h-7.8c-2.9,0-4,1-4,2.9c0,1,0,2.9,1,5.9l18.6,44.9c2.9-6.9,6.9-14.6,9.9-21.6
				l6.9-16.6c1.9-4.9,2.9-8.8,2.9-11.8c0-2.9-1-4-4-4h-6.9v-4c4.9,0,9.9,0,14.6,0s9.9,0,14.6,0v4h-4.9c-4,0-6.9,5.9-8.8,10.8
				L1219.6,1252.2z"/>
			<path fill="#FFFFFF" d="M1313.4,1222.8c0,1.9,0,4,0,6.9c-9.9,1.9-18.6,1.9-28.4,1.9h-22.5c0,18.6,8.8,31.2,28.4,31.2
				c7.7,0,13.6-4,19.5-7.8l1.9,1.9l-2.9,4.9c-1,1.9-14.6,8.8-25.4,8.8c-23.5,0-36.1-14.6-36.1-36.1c0-15.7,4-24.5,11.8-30.2
				c2.9-1.9,5.9-4.9,9.9-5.9c5.9-2.9,9.9-4,15.8-4C1300.8,1194.4,1313.4,1205.3,1313.4,1222.8z M1261.6,1223.8v1.9
				c6.9,1,13.6,1,19.5,1s11.8,0,17.6,0c0-14.6-4.9-26.4-16.6-26.4C1271.5,1199.4,1261.6,1208.3,1261.6,1223.8z"/>
			<path fill="#FFFFFF" d="M1331,1216.9c0-4.9,0-8.8-1-9.9c-1-1-2.9-1.9-5.9-1.9h-5.9v-4c8.8-1,18.6-4,24.5-6.9l1,1v15.8l0,0
				l8.8-9.9c4-4.9,8.8-6.9,12.8-6.9c2.9,0,5.9,1,6.9,1.9l-1,18.6h-2.9c-1.9-4-4.9-6.9-10.8-6.9c-6.9,0-13.6,6.9-13.6,17.6v27.2
				c0,4,0,7.8,1,8.8c1,1,2.9,1.9,6.9,1.9h7.8v4.9c-7.8,0-14.6,0-22.5,0c-7.9,0-13.6,0-19.5,0v-4.9h6.9c2.9,0,4-1,4.9-1.9
				c1-1.9,1-4.9,1-8.8v-36.1h0.6L1331,1216.9L1331,1216.9z"/>
			<path fill="#FFFFFF" d="M1384.8,1245.4v6.9c0,9.9,10.8,13.6,20.5,13.6c9.9,0,18.6-5.9,18.6-14.6c0-4.9-2.9-8.8-7.7-10.7
				c-6.9-1.9-15.8-4-23.5-5.9c-7.7-2.9-13.6-7.8-13.6-16.6c0-16.6,14.6-22.5,29.4-22.5c7.7,0,13.6,1.9,20.5,4c0,5.9-1,11.8-1,17.6
				h-4v-4c0-7.8-8.8-12.8-18.6-12.8c-13.6,0-15.8,7.8-15.8,12.8c0,6.9,4.9,10.8,16.6,12.8c18.6,2.9,27.2,7.8,27.2,19.5
				c0,17.6-17.6,26.4-34.2,26.4c-7.8,0-14.6-1-21.6-4c1.9-6.9,1.9-14.6,1.9-21.6h4.9v-1h0.5L1384.8,1245.4L1384.8,1245.4z"/>
			<path fill="#FFFFFF" d="M1465.9,1252.2c0,4,0,7.8,1,8.8c1,1,1.9,1.9,4.9,1.9h6.9v4.9c-5.9,0-11.8,0-19.5,0c-7.7,0-13.6,0-19.5,0
				v-4.9h6.9c2.9,0,4-1,4.9-1.9c1-1.9,1-4.9,1-8.8v-35.3c0-4.9,0-8.8-1-9.9s-2.9-1.9-5.9-1.9h-5.9v-4c8.8-1,18.6-4,24.5-6.9l1,1
				v56.8h0.8L1465.9,1252.2L1465.9,1252.2z M1467.9,1169c0,4.9-4,8.8-8.8,8.8c-4.9,0-8.8-4-8.8-8.8c0-4.8,4-8.8,8.8-8.8
				C1463,1160.3,1467.9,1164.2,1467.9,1169z"/>
			<path fill="#FFFFFF" d="M1476.6,1209.2v-2.9l11.8-5.9v-10.7c0-4,0-7.8-1-12.8c5.9-1.9,10.8-4,13.6-5.9l1.9,1.9
				c-1,6.9-1.9,15.8-1.9,22.5v5.9l21.6-1l-1,8.8h-19.5v41.1c0,6.9,1.9,10.8,8.8,10.8c4,0,6.9-1.9,8.8-2.9l1.9,2.9l-7.8,7.8
				c-1,1.9-6.9,1.9-9.9,1.9c-7.7,0-15.8-4-15.8-16.6V1209L1476.6,1209.2z"/>
			<path fill="#FFFFFF" d="M1586.1,1209.2c1-1.9,1-2.9,1-4c0-2.9-1.9-4-6.9-4h-4v-4c4.9,0,9.9,0,14.6,0c4.9,0,9.9,0,14.6,0v4h-4
				c-4,0-6.9,4.9-12.8,18.6l-31.2,73.4c-4.9,11.8-10.7,19.5-23.5,19.5c-2.9,0-5.9-1-7.8-1.9l4-11.8h1.9c1.9,1.9,5.9,4,7.7,4l0,0
				c8.8-1,13.6-13.6,16.6-20.5l4-9.9l-25.4-63.5c-2.9-5.9-4.9-7.8-7.8-7.8h-2.9v-4c5.9,0,11.8,0,18.6,0c5.9,0,11.8,0,18.6,0v4h-5.9
				c-2.9,0-4.9,1-4.9,4c0,1.9,0,4,1,5.9l17.6,43L1586.1,1209.2z"/>
		</g>
	</g>
</g>
</svg>
